<svg xmlns="http://www.w3.org/2000/svg" width="400" height="400"><g class="prefix__layer" filter="url(#prefix__sofGlow)"><path fill="url(#highlight)" d="M197 29 L170 29 L82 182 L188 371 L226 371 L186 302 L113 174 z"/><path fill="url(#main)" d="M197 29 L113 174 L186 302 L317 302 L282 241 L219 242 L191 193 L288 193 L288 137 L191 137 L219 90 L282 90 L317 29 z"/><path fill="#19202b" d="M82 182 L61 182 L169 371 L188 371 z"/></g><defs><linearGradient id="highlight" x1="0" x2="0" y1=".3" y2=".6"><stop id="prefix__jq_stop_7363" offset="0" stop-color="#5dd9ff"/><stop id="prefix__jq_stop_2831" offset="1" stop-color="#3ba8fe"/></linearGradient><radialGradient id="main" cx="0" cy=".5" r=".9" fx="0" fy=".5" spreadMethod="pad"><stop id="jq_stop_7363" offset="0" stop-color="#33496d"/><stop id="jq_stop_7363" offset=".4" stop-color="#24344d"/><stop id="jq_stop_2831" offset=".9" stop-color="#10141d"/></radialGradient><filter id="prefix__sofGlow" width="300%" height="300%" x="-75%" y="-75%"><feMorphology in="SourceAlpha" operator="dilate" radius="15" result="thicken"/><feGaussianBlur in="thicken" result="blurred" stdDeviation="10"/><feFlood flood-color="#fff" result="glowColor"/><feComposite in="glowColor" in2="blurred" operator="in" result="softGlow_colored"/><feMerge><feMergeNode in="softGlow_colored"/><feMergeNode in="SourceGraphic"/></feMerge></filter></defs></svg>